<svg xmlns="http://www.w3.org/2000/svg" width="50" height="50" viewBox="0 0 50 50">
    <g fill="none" fill-rule="evenodd">
        <path fill="#FFF" fill-rule="nonzero" d="M-20-20h90v90h-90z"/>
        <path d="M0 0h50v50H0z"/>
        <path fill="#000" fill-rule="nonzero" d="M32.947 19.518l-.845 16.2v.009a1.365 1.365 0 0 1-1.344 1.241H19.183a1.365 1.365 0 0 1-1.343-1.241l-.001-.019-.844-16.19a.5.5 0 1 1 .996-.053l.843 16.18c.02.173.181.324.35.324h11.574c.168 0 .33-.151.349-.324l.843-16.18a.5.5 0 1 1 .997.053zm1.995-3.522a.5.5 0 0 1-.5.5h-6.48a.5.5 0 0 1-.499-.5v-1.498a.5.5 0 0 0-.498-.499h-3.988a.5.5 0 0 0-.499.5v1.497a.5.5 0 0 1-.498.5h-6.481a.5.5 0 0 1 0-1h5.982v-.998c0-.826.67-1.498 1.496-1.498h3.988c.825 0 1.496.672 1.496 1.498v.999h5.982a.5.5 0 0 1 .499.5zm-7.229 3.995v13.98a.5.5 0 1 1-.998 0v-13.98a.5.5 0 1 1 .998 0zm-4.487 0v13.98a.5.5 0 1 1-.997 0v-13.98a.5.5 0 1 1 .997 0z"/>
    </g>
</svg>
