<svg xmlns="http://www.w3.org/2000/svg" xmlns:xlink="http://www.w3.org/1999/xlink" width="120" height="63" viewBox="0 0 120 63">
    <defs>
        <path id="a" d="M43.318 32.483a8.976 8.976 0 0 1-6.475 2.758c-4.961 0-8.997-4.023-8.997-8.968 0-4.947 4.036-8.97 8.997-8.97 2.279 0 4.355.856 5.942 2.253l6.836-6.426a18.335 18.335 0 0 0-12.778-5.173c-10.13 0-18.374 8.216-18.374 18.316 0 10.098 8.243 18.315 18.374 18.315 1.676 0 3.297-.229 4.84-.65l7.06 7.023c-3.68 1.771-7.715 2.692-11.9 2.692-15.145 0-27.467-12.283-27.467-27.38V0H0v26.273C0 46.524 16.527 63 36.843 63c8.106 0 15.8-2.575 22.244-7.447A37.532 37.532 0 0 0 63 52.128L43.318 32.483z"/>
        <linearGradient id="c" x1="0%" x2="85.047%" y1="0%" y2="87.567%">
            <stop offset="0%" stop-color="#FFE29B"/>
            <stop offset="100%" stop-color="#FF8BB3"/>
        </linearGradient>
    </defs>
    <g fill="none" fill-rule="evenodd">
        <text fill="#9B9B9B" font-family="Roboto-Black, Roboto" font-size="10.552" font-weight="700" letter-spacing=".1">
            <tspan x="67" y="29">L</tspan> <tspan x="72.819" y="29" letter-spacing=".198">E</tspan> <tspan x="79.025" y="29" letter-spacing=".187">T</tspan> <tspan x="85.946" y="29">T</tspan> <tspan x="92.698" y="29" letter-spacing=".095">E</tspan> <tspan x="98.697" y="29">R</tspan>
        </text>
        <text fill="#9B9B9B" font-family="Roboto-Black, Roboto" font-size="10.552" font-weight="700" letter-spacing=".1">
            <tspan x="67" y="40">CO</tspan> <tspan x="81.41" y="40" letter-spacing=".095">U</tspan> <tspan x="88.518" y="40" letter-spacing="-.048">N</tspan> <tspan x="95.73" y="40">T</tspan> <tspan x="102.481" y="40" letter-spacing=".095">E</tspan> <tspan x="108.481" y="40">R</tspan>
        </text>
        <mask id="b" fill="#fff">
            <use xlink:href="#a"/>
        </mask>
        <use fill="#191416" xlink:href="#a"/>
        <g fill="url(#c)" mask="url(#b)">
            <path d="M-.368-.374h63.737v64.749H-.368z"/>
        </g>
    </g>
</svg>
