<?xml version="1.0" encoding="utf-8"?>
<!-- Generator: Adobe Illustrator 23.0.1, SVG Export Plug-In . SVG Version: 6.00 Build 0)  -->
<svg version="1.1" id="Layer_1" xmlns="http://www.w3.org/2000/svg" xmlns:xlink="http://www.w3.org/1999/xlink" x="0px" y="0px"
	 viewBox="0 0 120 63" style="enable-background:new 0 0 120 63;" xml:space="preserve">
<g>
	<defs>
		<filter id="Adobe_OpacityMaskFilter" filterUnits="userSpaceOnUse" x="-0.4" y="-0.4" width="63.7" height="64.7">
			<feColorMatrix  type="matrix" values="1 0 0 0 0  0 1 0 0 0  0 0 1 0 0  0 0 0 1 0"/>
		</filter>
	</defs>
	<mask maskUnits="userSpaceOnUse" x="-0.4" y="-0.4" width="63.7" height="64.7" id="b_1_">
		<g style="filter:url(#Adobe_OpacityMaskFilter);">
			<path id="a_1_" style="fill-rule:evenodd;clip-rule:evenodd;fill:#FFFFFF;" d="M43.3,32.5c-1.7,1.8-4,2.8-6.5,2.8c-5,0-9-4-9-9
				c0-4.9,4-9,9-9c2.3,0,4.4,0.9,5.9,2.3l6.8-6.4C46.2,9.8,41.6,8,36.8,8c-10.1,0-18.4,8.2-18.4,18.3c0,10.1,8.2,18.3,18.4,18.3
				c1.7,0,3.3-0.2,4.8-0.7l7.1,7c-3.7,1.8-7.7,2.7-11.9,2.7c-15.1,0-27.5-12.3-27.5-27.4V0H0v26.3C0,46.5,16.5,63,36.8,63
				c8.1,0,15.8-2.6,22.2-7.4c1.4-1,2.7-2.2,3.9-3.4L43.3,32.5z"/>
		</g>
	</mask>
	<g style="mask:url(#b_1_);">
		
			<linearGradient id="SVGID_1_" gradientUnits="userSpaceOnUse" x1="-241.1487" y1="422.3855" x2="-240.2982" y2="421.5098" gradientTransform="matrix(63.737 0 0 -64.749 15370.1973 27348.1973)">
			<stop  offset="0" style="stop-color:#FFE29B"/>
			<stop  offset="1" style="stop-color:#FF8BB3"/>
		</linearGradient>
		<path style="fill-rule:evenodd;clip-rule:evenodd;fill:url(#SVGID_1_);" d="M-0.4-0.4h63.7v64.7H-0.4V-0.4z"/>
	</g>
	<text transform="matrix(1 0 0 1 67 29)" style="fill:#9B9B9B; font-family:'Arial-BoldMT'; font-size:10.552px;">L</text>
	<text transform="matrix(1 0 0 1 73.5456 29)" style="fill:#9B9B9B; font-family:'Arial-BoldMT'; font-size:10.552px;"> </text>
	<text transform="matrix(1 0 0 1 72.819 29)" style="fill:#9B9B9B; font-family:'Arial-BoldMT'; font-size:10.552px;">E</text>
	<text transform="matrix(1 0 0 1 80.0551 29)" style="fill:#9B9B9B; font-family:'Arial-BoldMT'; font-size:10.552px;"> </text>
	<text transform="matrix(1 0 0 1 79.025 29)" style="fill:#9B9B9B; font-family:'Arial-BoldMT'; font-size:10.552px;">T</text>
	<text transform="matrix(1 0 0 1 85.6576 29)" style="fill:#9B9B9B; font-family:'Arial-BoldMT'; font-size:10.552px;"> </text>
	<text transform="matrix(1 0 0 1 85.946 29)" style="fill:#9B9B9B; font-family:'Arial-BoldMT'; font-size:10.552px;">T</text>
	<text transform="matrix(1 0 0 1 92.4916 29)" style="fill:#9B9B9B; font-family:'Arial-BoldMT'; font-size:10.552px;"> </text>
	<text transform="matrix(1 0 0 1 92.698 29)" style="fill:#9B9B9B; font-family:'Arial-BoldMT'; font-size:10.552px;">E</text>
	<text transform="matrix(1 0 0 1 99.8311 29)" style="fill:#9B9B9B; font-family:'Arial-BoldMT'; font-size:10.552px;"> </text>
	<text transform="matrix(1 0 0 1 98.697 29)" style="fill:#9B9B9B; font-family:'Arial-BoldMT'; font-size:10.552px;">R</text>
	<text transform="matrix(1 0 0 1 67 40)" style="fill:#9B9B9B; font-family:'Arial-BoldMT'; font-size:10.552px;">CO</text>
	<text transform="matrix(1 0 0 1 83.028 40)" style="fill:#9B9B9B; font-family:'Arial-BoldMT'; font-size:10.552px;"> </text>
	<text transform="matrix(1 0 0 1 81.41 40)" style="fill:#9B9B9B; font-family:'Arial-BoldMT'; font-size:10.552px;">U</text>
	<text transform="matrix(1 0 0 1 89.1253 40)" style="fill:#9B9B9B; font-family:'Arial-BoldMT'; font-size:10.552px;"> </text>
	<text transform="matrix(1 0 0 1 88.518 40)" style="fill:#9B9B9B; font-family:'Arial-BoldMT'; font-size:10.552px;">N</text>
	<text transform="matrix(1 0 0 1 96.0903 40)" style="fill:#9B9B9B; font-family:'Arial-BoldMT'; font-size:10.552px;"> </text>
	<text transform="matrix(1 0 0 1 95.73 40)" style="fill:#9B9B9B; font-family:'Arial-BoldMT'; font-size:10.552px;">T</text>
	<text transform="matrix(1 0 0 1 102.2756 40)" style="fill:#9B9B9B; font-family:'Arial-BoldMT'; font-size:10.552px;"> </text>
	<text transform="matrix(1 0 0 1 102.481 40)" style="fill:#9B9B9B; font-family:'Arial-BoldMT'; font-size:10.552px;">E</text>
	<text transform="matrix(1 0 0 1 109.6141 40)" style="fill:#9B9B9B; font-family:'Arial-BoldMT'; font-size:10.552px;"> </text>
	<text transform="matrix(1 0 0 1 108.481 40)" style="fill:#9B9B9B; font-family:'Arial-BoldMT'; font-size:10.552px;">R</text>
</g>
</svg>
